<svg width="2074" height="1157" viewBox="0 0 2074 1157" fill="none" xmlns="http://www.w3.org/2000/svg">
<g opacity="0.05">
<path opacity="0.91" d="M462.117 173.6C126.935 -120.121 8.73775 44.9446 0.471977 57.525C0.125787 58.0519 0.00310071 58.5988 0.00895986 59.2293L3.93925 482.113C5.09932 606.932 105.729 709.256 227.552 682.05C366.056 651.118 528.425 579.852 584.401 416.321C638.187 259.188 488.966 197.127 462.117 173.6Z" fill="#6FCF97"/>
</g>
<g opacity="0.91" filter="url(#filter0_d_112_1173)">
<path d="M504.788 724.342C383.465 618.049 301.184 594.049 248.42 597.849C195.692 601.646 172.169 633.228 168.4 638.817C168.117 639.237 168.005 639.679 168.011 640.285L169.918 845.465C170.611 919.975 202.183 989.418 250.579 1032.72C298.946 1075.99 364.093 1093.15 432.14 1063.24C502.219 1032.43 566.206 982.347 594.059 900.993C603.852 872.39 604.387 848.171 599.423 827.665C594.457 807.153 583.972 790.29 571.625 776.432C559.274 762.571 545.076 751.733 532.711 743.273C527.866 739.958 523.312 737.015 519.257 734.394C518.136 733.669 517.052 732.968 516.011 732.292C511.232 729.185 507.31 726.551 504.788 724.342Z" stroke="#4F4F4F" stroke-width="2"/>
</g>
<g opacity="0.91" filter="url(#filter1_d_112_1173)">
<path d="M485.447 723.59C242.628 510.852 155.296 626.802 147.571 638.258C147.149 638.884 147.004 639.538 147.011 640.294L148.918 845.474C150.308 995.019 275.637 1124.34 412.543 1064.15C482.772 1033.28 547.03 983.027 575.005 901.317C614.397 786.26 505.11 740.817 485.447 723.59Z" fill="#6FCF97"/>
</g>
<mask id="mask0_112_1173" style="mask-type:alpha" maskUnits="userSpaceOnUse" x="1415" y="315" width="494" height="460">
<path d="M1622.2 771.936C1730.52 792.967 1838.99 661.524 1879.68 593.175C1887.43 581.465 1903.93 547.782 1907.86 506.725C1912.79 455.405 1813.6 464.916 1781.92 442.627C1750.24 420.338 1730.71 370.585 1685.24 330.882C1639.77 291.178 1579.9 331.832 1558.99 393.03C1538.08 454.227 1448.08 401.316 1420.44 536.991C1392.81 672.666 1486.8 745.648 1622.2 771.936Z" fill="#0B56FA"/>
</mask>
<g mask="url(#mask0_112_1173)">
<rect x="1477.56" y="176.656" width="732.287" height="5.81514" transform="rotate(36.8196 1477.56 176.656)" fill="#25356A" fill-opacity="0.05"/>
<rect x="1468.26" y="189.069" width="732.287" height="5.81514" transform="rotate(36.8196 1468.26 189.069)" fill="#25356A" fill-opacity="0.05"/>
<rect x="1458.97" y="201.483" width="732.287" height="5.81514" transform="rotate(36.8196 1458.97 201.483)" fill="#25356A" fill-opacity="0.05"/>
<rect x="1449.68" y="213.897" width="732.287" height="5.81514" transform="rotate(36.8196 1449.68 213.897)" fill="#25356A" fill-opacity="0.05"/>
<rect x="1440.38" y="226.311" width="732.287" height="5.81514" transform="rotate(36.8196 1440.38 226.311)" fill="#25356A" fill-opacity="0.05"/>
<rect x="1431.09" y="238.725" width="732.287" height="5.81514" transform="rotate(36.8196 1431.09 238.725)" fill="#25356A" fill-opacity="0.05"/>
<rect x="1421.8" y="251.138" width="732.287" height="5.81514" transform="rotate(36.8196 1421.8 251.138)" fill="#25356A" fill-opacity="0.05"/>
<rect x="1412.5" y="263.552" width="732.287" height="5.81514" transform="rotate(36.8196 1412.5 263.552)" fill="#25356A" fill-opacity="0.05"/>
<rect x="1403.21" y="275.966" width="732.287" height="5.81514" transform="rotate(36.8196 1403.21 275.966)" fill="#25356A" fill-opacity="0.05"/>
<rect x="1393.92" y="288.38" width="732.287" height="5.81514" transform="rotate(36.8196 1393.92 288.38)" fill="#25356A" fill-opacity="0.05"/>
<rect x="1384.62" y="300.794" width="732.287" height="5.81514" transform="rotate(36.8196 1384.62 300.794)" fill="#25356A" fill-opacity="0.05"/>
<rect x="1375.33" y="313.208" width="732.287" height="5.81514" transform="rotate(36.8196 1375.33 313.208)" fill="#25356A" fill-opacity="0.05"/>
<rect x="1366.04" y="325.621" width="732.287" height="5.81514" transform="rotate(36.8196 1366.04 325.621)" fill="#25356A" fill-opacity="0.05"/>
<rect x="1356.74" y="338.035" width="732.287" height="5.81514" transform="rotate(36.8196 1356.74 338.035)" fill="#25356A" fill-opacity="0.05"/>
<rect x="1347.45" y="350.449" width="732.287" height="5.81514" transform="rotate(36.8196 1347.45 350.449)" fill="#25356A" fill-opacity="0.05"/>
<rect x="1338.16" y="362.863" width="732.287" height="5.81514" transform="rotate(36.8196 1338.16 362.863)" fill="#25356A" fill-opacity="0.05"/>
<rect x="1328.86" y="375.277" width="732.287" height="5.81514" transform="rotate(36.8196 1328.86 375.277)" fill="#25356A" fill-opacity="0.05"/>
<rect x="1319.57" y="387.69" width="732.287" height="5.81514" transform="rotate(36.8196 1319.57 387.69)" fill="#25356A" fill-opacity="0.05"/>
<rect x="1310.28" y="400.104" width="732.287" height="5.81514" transform="rotate(36.8196 1310.28 400.104)" fill="#25356A" fill-opacity="0.05"/>
<rect x="1300.98" y="412.518" width="732.287" height="5.81514" transform="rotate(36.8196 1300.98 412.518)" fill="#25356A" fill-opacity="0.05"/>
<rect x="1291.69" y="424.932" width="732.287" height="5.81514" transform="rotate(36.8196 1291.69 424.932)" fill="#25356A" fill-opacity="0.05"/>
<rect x="1281.23" y="438.897" width="732.287" height="5.81514" transform="rotate(36.8196 1281.23 438.897)" fill="#25356A" fill-opacity="0.05"/>
<rect x="1270.78" y="452.863" width="732.287" height="5.81514" transform="rotate(36.8196 1270.78 452.863)" fill="#25356A" fill-opacity="0.05"/>
<rect x="1260.32" y="466.828" width="732.287" height="5.81514" transform="rotate(36.8196 1260.32 466.828)" fill="#25356A" fill-opacity="0.05"/>
<rect x="1249.87" y="480.794" width="732.287" height="5.81514" transform="rotate(36.8196 1249.87 480.794)" fill="#25356A" fill-opacity="0.05"/>
<rect x="1239.41" y="494.759" width="732.287" height="5.81514" transform="rotate(36.8196 1239.41 494.759)" fill="#25356A" fill-opacity="0.05"/>
<rect x="1228.96" y="508.725" width="732.287" height="5.81514" transform="rotate(36.8196 1228.96 508.725)" fill="#25356A" fill-opacity="0.05"/>
</g>
<defs>
<filter id="filter0_d_112_1173" x="131.044" y="560.509" width="549.293" height="595.581" filterUnits="userSpaceOnUse" color-interpolation-filters="sRGB">
<feFlood flood-opacity="0" result="BackgroundImageFix"/>
<feColorMatrix in="SourceAlpha" type="matrix" values="0 0 0 0 0 0 0 0 0 0 0 0 0 0 0 0 0 0 127 0" result="hardAlpha"/>
<feOffset dx="20.4354" dy="20.4354"/>
<feGaussianBlur stdDeviation="28.2009"/>
<feColorMatrix type="matrix" values="0 0 0 0 0 0 0 0 0 0 0 0 0 0 0 0 0 0 0.04 0"/>
<feBlend mode="normal" in2="BackgroundImageFix" result="effect1_dropShadow_112_1173"/>
<feBlend mode="normal" in="SourceGraphic" in2="effect1_dropShadow_112_1173" result="shape"/>
</filter>
<filter id="filter1_d_112_1173" x="111.044" y="560.509" width="549.293" height="595.581" filterUnits="userSpaceOnUse" color-interpolation-filters="sRGB">
<feFlood flood-opacity="0" result="BackgroundImageFix"/>
<feColorMatrix in="SourceAlpha" type="matrix" values="0 0 0 0 0 0 0 0 0 0 0 0 0 0 0 0 0 0 127 0" result="hardAlpha"/>
<feOffset dx="20.4354" dy="20.4354"/>
<feGaussianBlur stdDeviation="28.2009"/>
<feColorMatrix type="matrix" values="0 0 0 0 0 0 0 0 0 0 0 0 0 0 0 0 0 0 0.04 0"/>
<feBlend mode="normal" in2="BackgroundImageFix" result="effect1_dropShadow_112_1173"/>
<feBlend mode="normal" in="SourceGraphic" in2="effect1_dropShadow_112_1173" result="shape"/>
</filter>
</defs>
</svg>
