<?xml version="1.0" encoding="UTF-8"?>
<!DOCTYPE svg PUBLIC "-//W3C//DTD SVG 1.1//EN" "http://www.w3.org/Graphics/SVG/1.1/DTD/svg11.dtd">
<!-- Creator: CorelDRAW 2021 (64-Bit Evaluation Version) -->
<svg xmlns="http://www.w3.org/2000/svg" xml:space="preserve" width="2.15849in" height="1.39381in" version="1.1" style="shape-rendering:geometricPrecision; text-rendering:geometricPrecision; image-rendering:optimizeQuality; fill-rule:evenodd; clip-rule:evenodd"
viewBox="0 0 2158.37 1393.73"
 xmlns:xlink="http://www.w3.org/1999/xlink"
 xmlns:xodm="http://www.corel.com/coreldraw/odm/2003">
 <defs>
  <style type="text/css">
   <![CDATA[
    .fil0 {fill:#02A667}
   ]]>
  </style>
 </defs>
 <g id="Layer_x0020_1">
  <metadata id="CorelCorpID_0Corel-Layer"/>
  <g id="_1590859443104">
   <path class="fil0" d="M726.83 856.85c-3.25,-4.49 -40.56,-18.27 -49.85,-22.45l-67.81 -27.25c-15.48,-6.35 -17.8,-5.42 -32.82,0.31l-15.02 5.57c-41.18,15.33 -132.52,57.13 -177.88,76.16l-124.47 55.26c-4.49,2.02 -7.28,-0.93 -7.74,7.59l0.62 295.07c8.05,1.85 12.23,5.57 20.44,8.51 30.49,10.99 84.06,36.84 115.64,49.54l148.46 62.08c3.56,1.55 6.19,2.94 11.3,5.26 7.28,3.1 37.62,12.85 40.71,21.21 11.15,0 33.44,-9.6 43.35,-14.4l100.47 -44.12c7.74,-3.72 15.33,-4.18 19.35,-9.6 2.17,-2.02 0.62,-1.09 4.8,-3.41l178.96 -77.09 -7.43 -308.85 -120.6 -44.28c-5.57,-1.24 -15.17,-5.88 -20.59,-8.36 -9.13,-4.03 -54.34,-21.98 -59.91,-26.78l0 0.02z"/>
   <path class="fil0" d="M1272.08 782.38c2.94,-2.63 0.16,-0.77 4.96,-3.25l154.03 -67.04c0,-37.93 -4.33,-279.74 2.02,-293.21l-91.49 -42.73c-10.37,-4.8 -20.44,-8.67 -30.34,-13.01l-123.85 -53.72c-4.65,-6.35 -16.88,-8.2 -25.39,-11.76l-55.73 -22.75c-25.7,-11.15 -39.01,3.72 -71.99,15.79l-273.09 119.21c-17.8,5.73 -13.63,-2.79 -13.77,39.94l0 262.25c17.65,11.92 40.87,18.58 60.84,27.87l171.53 72.14c8.52,3.25 13.78,6.35 21.52,9.44l63.63 27.25c4.65,2.17 3.87,1.86 10.06,4.33 7.74,2.94 6.66,-0.62 8.83,7.59 20.59,0 62.85,-22.29 84.22,-31.42l68.89 -30.19c3.87,-1.85 6.96,-3.25 11.46,-5.11 5.11,-2.17 7.74,-3.71 11.3,-5.11 8.2,-3.41 7.43,-0.62 11.92,-6.66l0.46 0.15z"/>
   <path class="fil0" d="M1585.88 288.85c10.53,0.15 123.85,37 145.06,42.88 116.26,32.2 246.3,77.25 364.11,110.69l63.32 15.17c-19.51,-11.76 -163.01,-78.18 -189.49,-89.17 -18.11,-7.58 -32.97,-15.33 -51.4,-23.07l-129.27 -56.66c-8.83,-3.87 -16.72,-6.96 -26.01,-11.15l-261.16 -110.54c-13.16,-5.42 -149.55,-60.22 -156.67,-66.41 -4.18,-5.57 -46.44,-20.9 -58.67,-26.01l-110.54 -44.27c-4.33,-1.86 -5.26,-2.32 -10.37,-4.18l-32.51 -13c-7.59,-2.94 -13.78,-5.26 -21.05,-7.89 -15.48,-5.73 -24.31,-7.74 -40.71,-0.93 -38.55,15.79 -76.94,29.42 -114.41,46.75 -7.43,3.41 -11.61,5.26 -20.44,8.52 -28.17,10.22 -55.58,25.39 -83.75,36.07l-94.59 39.79c-3.25,1.55 -6.96,3.71 -10.37,4.95l-18.73 7.28c-4.18,1.86 -6.5,2.94 -10.07,4.49 -5.11,2.32 -5.57,2.94 -11.45,5.11l-43.35 18.58c-8.2,3.87 -11.61,4.95 -20.59,8.36l-21.68 9.29c-20.28,8.05 -41.18,19.82 -61.46,27.25l-104.81 45.98c-55.42,26.01 -112.08,48.46 -168.28,73.38l-20.13 8.83c-7.43,3.41 -14.24,7.12 -21.21,9.76l-82.67 37c-7.59,3.41 -12.39,5.57 -19.82,9.13 -6.35,2.94 -15.17,6.35 -21.36,9.6l-60.69 28.02c-8.21,3.72 -13.01,6.5 -20.9,10.07 -8.05,3.56 -13.47,6.96 -21.05,9.9 -6.66,2.63 -14.24,6.04 -18.73,12.23 14.55,0 165.33,-47.06 195.06,-56.82l792.32 -246.3c26.16,-7.59 78.95,-28.95 99.23,-30.96 5.89,-0.62 19.04,3.1 25.08,4.96l298.17 92.11c30.49,8.51 159.3,50.78 176.02,51.24l-0 -0.01z"/>
   <path class="fil0" d="M1667.46 838.28c-3.25,-4.49 -40.56,-18.27 -49.85,-22.45l-67.8 -27.25c-15.48,-6.35 -17.81,-5.42 -32.82,0.31l-15.01 5.57c-41.18,15.33 -132.52,57.13 -177.88,76.17l-124.47 55.26c-4.49,2.01 -7.28,-0.93 -7.74,7.58l0.62 295.07c8.05,1.86 12.23,5.57 20.43,8.51 30.5,10.99 84.06,36.85 115.64,49.54l148.46 62.08c3.56,1.55 6.19,2.94 11.3,5.26 7.28,3.1 37.62,12.85 40.72,21.21 11.15,0 33.44,-9.6 43.34,-14.4l100.47 -44.12c7.74,-3.71 15.33,-4.18 19.36,-9.6 2.17,-2.01 0.62,-1.09 4.8,-3.41l178.96 -77.1 -7.43 -308.85 -120.6 -44.27c-5.57,-1.24 -15.17,-5.89 -20.59,-8.36 -9.14,-4.03 -54.34,-21.98 -59.91,-26.78l0 0.01z"/>
  </g>
 </g>
</svg>
